<svg xmlns="http://www.w3.org/2000/svg" xmlns:xlink="http://www.w3.org/1999/xlink" contentStyleType="text/css" data-diagram-type="ACTIVITY" height="648px" preserveAspectRatio="none" style="width:532px;height:648px;background:#FFFFFF;" version="1.1" viewBox="0 0 532 648" width="532px" zoomAndPan="magnify"><?plantuml 1.2026.6?><defs/><g><g class="title" data-source-line="11"><text fill="#000000" font-family="Helvetica" font-size="14" font-weight="700" lengthAdjust="spacing" textLength="186.7373" x="172.0522" y="30.7803">Paired backtest for one task</text></g><ellipse cx="264.4209" cy="60" fill="#222222" rx="10" ry="10" style="stroke:#222222;stroke-width:1;"/><rect fill="#F4F1EA" height="44" rx="12.5" ry="12.5" style="stroke:#555555;stroke-width:0.5;" width="298.7773" x="115.0322" y="90"/><text fill="#000000" font-family="Helvetica" font-size="12" lengthAdjust="spacing" textLength="83.3848" x="125.0322" y="109.2402">Load TaskSpec</text><text fill="#000000" font-family="Helvetica" font-size="12" lengthAdjust="spacing" textLength="278.7773" x="125.0322" y="121.2402">(prompt, snapshot coords, expected memory, rubric)</text><rect fill="#F4F1EA" height="44" rx="12.5" ry="12.5" style="stroke:#555555;stroke-width:0.5;" width="185.4043" x="171.7188" y="154"/><text fill="#000000" font-family="Helvetica" font-size="12" lengthAdjust="spacing" textLength="165.4043" x="181.7188" y="173.2402">Materialize snapshot at (T, tau)</text><text fill="#000000" font-family="Helvetica" font-size="12" lengthAdjust="spacing" textLength="155.4141" x="181.7188" y="185.2402">from the bitemporal event log</text><rect fill="#F4F1EA" height="32" rx="12.5" ry="12.5" style="stroke:#555555;stroke-width:0.5;" width="213.418" x="157.7119" y="218"/><text fill="#000000" font-family="Helvetica" font-size="12" lengthAdjust="spacing" textLength="193.418" x="167.7119" y="237.2402">Retrieve compiled KB for the prompt</text><rect fill="#555555" height="6" rx="2.5" ry="2.5" style="stroke:#555555;stroke-width:1;" width="496.8418" x="16" y="270"/><rect fill="#F4F1EA" height="32" rx="12.5" ry="12.5" style="stroke:#555555;stroke-width:0.5;" width="176.0996" x="55.6504" y="296"/><text fill="#000000" font-family="Helvetica" font-size="12" lengthAdjust="spacing" textLength="156.0996" x="65.6504" y="315.2402">Seed sandbox from snapshot</text><rect fill="#F4F1EA" height="32" rx="12.5" ry="12.5" style="stroke:#555555;stroke-width:0.5;" width="231.4004" x="28" y="348"/><text fill="#000000" font-family="Helvetica" font-size="12" lengthAdjust="spacing" textLength="211.4004" x="38" y="367.2402">Run agent WITHOUT memory mounted</text><rect fill="#F4F1EA" height="32" rx="12.5" ry="12.5" style="stroke:#555555;stroke-width:0.5;" width="150.0547" x="68.6729" y="400"/><text fill="#000000" font-family="Helvetica" font-size="12" lengthAdjust="spacing" textLength="130.0547" x="78.6729" y="419.2402">Score on four axis rubric</text><rect fill="#F4F1EA" height="32" rx="12.5" ry="12.5" style="stroke:#555555;stroke-width:0.5;" width="213.4414" x="287.4004" y="296"/><text fill="#000000" font-family="Helvetica" font-size="12" lengthAdjust="spacing" textLength="193.4414" x="297.4004" y="315.2402">Seed SAME sandbox from snapshot</text><rect fill="#F4F1EA" height="32" rx="12.5" ry="12.5" style="stroke:#555555;stroke-width:0.5;" width="206.0703" x="291.0859" y="348"/><text fill="#000000" font-family="Helvetica" font-size="12" lengthAdjust="spacing" textLength="186.0703" x="301.0859" y="367.2402">Run agent WITH memory mounted</text><rect fill="#F4F1EA" height="32" rx="12.5" ry="12.5" style="stroke:#555555;stroke-width:0.5;" width="150.0547" x="319.0938" y="400"/><text fill="#000000" font-family="Helvetica" font-size="12" lengthAdjust="spacing" textLength="130.0547" x="329.0938" y="419.2402">Score on four axis rubric</text><rect fill="#555555" height="6" rx="2.5" ry="2.5" style="stroke:#555555;stroke-width:1;" width="496.8418" x="16" y="452"/><rect fill="#F4F1EA" height="44" rx="12.5" ry="12.5" style="stroke:#555555;stroke-width:0.5;" width="185.0703" x="171.8857" y="478"/><text fill="#000000" font-family="Helvetica" font-size="12" lengthAdjust="spacing" textLength="164.0977" x="181.8857" y="497.2402">Compute paired outcome delta</text><text fill="#000000" font-family="Helvetica" font-size="12" lengthAdjust="spacing" textLength="165.0703" x="181.8857" y="509.2402">(task outcome + action validity)</text><rect fill="#F4F1EA" height="44" rx="12.5" ry="12.5" style="stroke:#555555;stroke-width:0.5;" width="197.3926" x="165.7246" y="542"/><text fill="#000000" font-family="Helvetica" font-size="12" lengthAdjust="spacing" textLength="125.3965" x="175.7246" y="561.2402">Aggregate across tasks</text><text fill="#000000" font-family="Helvetica" font-size="12" lengthAdjust="spacing" textLength="177.3926" x="175.7246" y="573.2402">(bootstrap CI, Wilcoxon, win rate)</text><ellipse cx="264.4209" cy="617" fill="none" rx="11" ry="11" style="stroke:#222222;stroke-width:1;"/><ellipse cx="264.4209" cy="617" fill="#222222" rx="6" ry="6" style="stroke:#222222;stroke-width:1;"/><line style="stroke:#555555;stroke-width:1;" x1="264.4209" x2="264.4209" y1="70" y2="90"/><polygon fill="#555555" points="260.4209,80,264.4209,90,268.4209,80,264.4209,84" style="stroke:#555555;stroke-width:1;stroke-linejoin:miter;stroke-miterlimit:10;"/><line style="stroke:#555555;stroke-width:1;" x1="264.4209" x2="264.4209" y1="134" y2="154"/><polygon fill="#555555" points="260.4209,144,264.4209,154,268.4209,144,264.4209,148" style="stroke:#555555;stroke-width:1;stroke-linejoin:miter;stroke-miterlimit:10;"/><line style="stroke:#555555;stroke-width:1;" x1="264.4209" x2="264.4209" y1="198" y2="218"/><polygon fill="#555555" points="260.4209,208,264.4209,218,268.4209,208,264.4209,212" style="stroke:#555555;stroke-width:1;stroke-linejoin:miter;stroke-miterlimit:10;"/><line style="stroke:#555555;stroke-width:1;" x1="143.7002" x2="143.7002" y1="328" y2="348"/><polygon fill="#555555" points="139.7002,338,143.7002,348,147.7002,338,143.7002,342" style="stroke:#555555;stroke-width:1;stroke-linejoin:miter;stroke-miterlimit:10;"/><line style="stroke:#555555;stroke-width:1;" x1="143.7002" x2="143.7002" y1="380" y2="400"/><polygon fill="#555555" points="139.7002,390,143.7002,400,147.7002,390,143.7002,394" style="stroke:#555555;stroke-width:1;stroke-linejoin:miter;stroke-miterlimit:10;"/><line style="stroke:#555555;stroke-width:1;" x1="394.1211" x2="394.1211" y1="328" y2="348"/><polygon fill="#555555" points="390.1211,338,394.1211,348,398.1211,338,394.1211,342" style="stroke:#555555;stroke-width:1;stroke-linejoin:miter;stroke-miterlimit:10;"/><line style="stroke:#555555;stroke-width:1;" x1="394.1211" x2="394.1211" y1="380" y2="400"/><polygon fill="#555555" points="390.1211,390,394.1211,400,398.1211,390,394.1211,394" style="stroke:#555555;stroke-width:1;stroke-linejoin:miter;stroke-miterlimit:10;"/><line style="stroke:#555555;stroke-width:1;" x1="143.7002" x2="143.7002" y1="276" y2="296"/><polygon fill="#555555" points="139.7002,286,143.7002,296,147.7002,286,143.7002,290" style="stroke:#555555;stroke-width:1;stroke-linejoin:miter;stroke-miterlimit:10;"/><line style="stroke:#555555;stroke-width:1;" x1="394.1211" x2="394.1211" y1="276" y2="296"/><polygon fill="#555555" points="390.1211,286,394.1211,296,398.1211,286,394.1211,290" style="stroke:#555555;stroke-width:1;stroke-linejoin:miter;stroke-miterlimit:10;"/><line style="stroke:#555555;stroke-width:1;" x1="143.7002" x2="143.7002" y1="432" y2="452"/><polygon fill="#555555" points="139.7002,442,143.7002,452,147.7002,442,143.7002,446" style="stroke:#555555;stroke-width:1;stroke-linejoin:miter;stroke-miterlimit:10;"/><line style="stroke:#555555;stroke-width:1;" x1="394.1211" x2="394.1211" y1="432" y2="452"/><polygon fill="#555555" points="390.1211,442,394.1211,452,398.1211,442,394.1211,446" style="stroke:#555555;stroke-width:1;stroke-linejoin:miter;stroke-miterlimit:10;"/><line style="stroke:#555555;stroke-width:1;" x1="264.4209" x2="264.4209" y1="250" y2="270"/><polygon fill="#555555" points="260.4209,260,264.4209,270,268.4209,260,264.4209,264" style="stroke:#555555;stroke-width:1;stroke-linejoin:miter;stroke-miterlimit:10;"/><line style="stroke:#555555;stroke-width:1;" x1="264.4209" x2="264.4209" y1="458" y2="478"/><polygon fill="#555555" points="260.4209,468,264.4209,478,268.4209,468,264.4209,472" style="stroke:#555555;stroke-width:1;stroke-linejoin:miter;stroke-miterlimit:10;"/><line style="stroke:#555555;stroke-width:1;" x1="264.4209" x2="264.4209" y1="522" y2="542"/><polygon fill="#555555" points="260.4209,532,264.4209,542,268.4209,532,264.4209,536" style="stroke:#555555;stroke-width:1;stroke-linejoin:miter;stroke-miterlimit:10;"/><line style="stroke:#555555;stroke-width:1;" x1="264.4209" x2="264.4209" y1="586" y2="606"/><polygon fill="#555555" points="260.4209,596,264.4209,606,268.4209,596,264.4209,600" style="stroke:#555555;stroke-width:1;stroke-linejoin:miter;stroke-miterlimit:10;"/><?plantuml-src bLDDRnD13BtFhx34WLQia93WafpIg54hAA0cg9TUd5rdCyhiUEJn9Yc8_uvtqeJGKybb9N-yD-yzvoqirWG9lL03EwzhsERovLwXeuxb2PPORvIoLf18G35lthkyyJ6XO5UwhN0Vcoa75jYjlT9Plw4Lza5d7FKhTWGt5BQaliQpcRp6XdS-jh32aC-tiLQ_zVe4lnp0rGkgDxEFim_Naw73qf0yLp-Ld_jz1ZCHuTs_RQTU0y7tW_IZHbZP24SgCftBYg9kz8MnWOLLvedgntYHXBjaVkI8AQzPeMPxGAw0zZQWXdUmhWBfb-Bhox4RtQ6IU0p-9_tTGuMBHMLa_ULZN1aggCMnD0Uxn881Q4jH8N1h2FUaugrWR5tomLW-NvNt3Zk79usTiyB671dDoGOoncR9UoZGHzRnqBxl8s0xW3_SBcw-_LWSq-xCNrDGXkOr2vaTnj8BuDxdPq7ZGcC0wEE9R3wvkturut_IKMoWA7EZgGdjzNIqTgZc1zcT1KNBPWZkL7nN3iWGjsPyOtSq935fMw7Muh2cSCubwsohIsRDAfXWUbl1WmyrxpbMzd-883PloravkJy0?></g></svg>