<svg xmlns="http://www.w3.org/2000/svg" xmlns:xlink="http://www.w3.org/1999/xlink" contentStyleType="text/css" data-diagram-type="DESCRIPTION" height="658px" preserveAspectRatio="none" style="width:1071px;height:658px;background:#FFFFFF;" version="1.1" viewBox="0 0 1071 658" width="1071px" zoomAndPan="magnify"><?plantuml 1.2026.6?><defs/><g><g class="title" data-source-line="11"><text fill="#000000" font-family="Helvetica" font-size="14" font-weight="700" lengthAdjust="spacing" textLength="384.3096" x="340.1668" y="20.7803">ombench package layers (dependencies point downward)</text></g><!--entity cli--><g class="entity" data-qualified-name="cli" data-source-line="13" id="ent0001"><rect fill="#F4F1EA" height="62" rx="2.5" ry="2.5" style="stroke:#555555;stroke-width:0.5;" width="332.792" x="372.38" y="42"/><text fill="#000000" font-family="Helvetica" font-size="14" lengthAdjust="spacing" textLength="59.5342" x="382.38" y="62.7803">cli + apps</text><text fill="#000000" font-family="Helvetica" font-size="14" lengthAdjust="spacing" textLength="312.792" x="382.38" y="76.7803">omb trace/sync/snapshot/memory/eval/saasgit/viz,</text><text fill="#000000" font-family="Helvetica" font-size="14" lengthAdjust="spacing" textLength="172.7441" x="382.38" y="90.7803">sync_worker, replay_runner</text></g><!--entity ev--><g class="entity" data-qualified-name="ev" data-source-line="14" id="ent0002"><rect fill="#F4F1EA" height="48" rx="2.5" ry="2.5" style="stroke:#555555;stroke-width:0.5;" width="369.3643" x="680.09" y="164"/><text fill="#000000" font-family="Helvetica" font-size="14" lengthAdjust="spacing" textLength="111.6514" x="690.09" y="184.7803">eval (Tasks 4 + 6)</text><text fill="#000000" font-family="Helvetica" font-size="14" lengthAdjust="spacing" textLength="349.3643" x="690.09" y="198.7803">tasks, rubrics, judges, runner, stats, reports, miner, seed</text></g><!--entity rp--><g class="entity" data-qualified-name="rp" data-source-line="15" id="ent0003"><rect fill="#F4F1EA" height="48" rx="2.5" ry="2.5" style="stroke:#555555;stroke-width:0.5;" width="269.0469" x="736.25" y="272"/><text fill="#000000" font-family="Helvetica" font-size="14" lengthAdjust="spacing" textLength="93.3584" x="746.25" y="292.7803">replay (Task 5)</text><text fill="#000000" font-family="Helvetica" font-size="14" lengthAdjust="spacing" textLength="249.0469" x="746.25" y="306.7803">sandbox, sandbox_api, validators, faults</text></g><!--entity mem--><g class="entity" data-qualified-name="mem" data-source-line="16" id="ent0004"><rect fill="#F4F1EA" height="48" rx="2.5" ry="2.5" style="stroke:#555555;stroke-width:0.5;" width="324.9922" x="376.28" y="272"/><text fill="#000000" font-family="Helvetica" font-size="14" lengthAdjust="spacing" textLength="105.7861" x="386.28" y="292.7803">memory (Task 3)</text><text fill="#000000" font-family="Helvetica" font-size="14" lengthAdjust="spacing" textLength="304.9922" x="386.28" y="306.7803">compiler, retriever, scorer, resolver, kb, bootstrap</text></g><!--entity llm--><g class="entity" data-qualified-name="llm" data-source-line="17" id="ent0005"><rect fill="#F4F1EA" height="48" rx="2.5" ry="2.5" style="stroke:#555555;stroke-width:0.5;" width="233.2539" x="777.15" y="380"/><text fill="#000000" font-family="Helvetica" font-size="14" lengthAdjust="spacing" textLength="17.8828" x="787.15" y="400.7803">llm</text><text fill="#000000" font-family="Helvetica" font-size="14" lengthAdjust="spacing" textLength="213.2539" x="787.15" y="414.7803">base, stub, anthropic_client, agent</text></g><!--entity integ--><g class="entity" data-qualified-name="integ" data-source-line="18" id="ent0006"><rect fill="#F4F1EA" height="48" rx="2.5" ry="2.5" style="stroke:#555555;stroke-width:0.5;" width="263.5439" x="7" y="164"/><text fill="#000000" font-family="Helvetica" font-size="14" lengthAdjust="spacing" textLength="180.5166" x="17" y="184.7803">integrations (Task 2 sources)</text><text fill="#000000" font-family="Helvetica" font-size="14" lengthAdjust="spacing" textLength="243.5439" x="17" y="198.7803">base, registry, slack, gcal, gdocs, gmail</text></g><!--entity snap--><g class="entity" data-qualified-name="snap" data-source-line="19" id="ent0007"><rect fill="#F4F1EA" height="48" rx="2.5" ry="2.5" style="stroke:#555555;stroke-width:0.5;" width="174.834" x="567.35" y="380"/><text fill="#000000" font-family="Helvetica" font-size="14" lengthAdjust="spacing" textLength="119.0479" x="577.35" y="400.7803">snapshots (Task 2)</text><text fill="#000000" font-family="Helvetica" font-size="14" lengthAdjust="spacing" textLength="154.834" x="577.35" y="414.7803">materialize, manifest, diff</text></g><!--entity ev2--><g class="entity" data-qualified-name="ev2" data-source-line="20" id="ent0008"><rect fill="#F4F1EA" height="48" rx="2.5" ry="2.5" style="stroke:#555555;stroke-width:0.5;" width="212.2129" x="437.67" y="488"/><text fill="#000000" font-family="Helvetica" font-size="14" lengthAdjust="spacing" textLength="157.1719" x="447.67" y="508.7803">events (history substrate)</text><text fill="#000000" font-family="Helvetica" font-size="14" lengthAdjust="spacing" textLength="192.2129" x="447.67" y="522.7803">schema/algebra, store, queries</text></g><!--entity tr--><g class="entity" data-qualified-name="tr" data-source-line="21" id="ent0009"><rect fill="#F4F1EA" height="48" rx="2.5" ry="2.5" style="stroke:#555555;stroke-width:0.5;" width="357.7432" x="699.9" y="488"/><text fill="#000000" font-family="Helvetica" font-size="14" lengthAdjust="spacing" textLength="93.3516" x="709.9" y="508.7803">traces (Task 1)</text><text fill="#000000" font-family="Helvetica" font-size="14" lengthAdjust="spacing" textLength="337.7432" x="709.9" y="522.7803">schema, ingest, redact, converters, hook, otel_adapter</text></g><!--entity st--><g class="entity" data-qualified-name="st" data-source-line="22" id="ent0010"><rect fill="#F4F1EA" height="48" rx="2.5" ry="2.5" style="stroke:#555555;stroke-width:0.5;" width="415.3496" x="496.1" y="596"/><text fill="#000000" font-family="Helvetica" font-size="14" lengthAdjust="spacing" textLength="46.6963" x="506.1" y="616.7803">storage</text><text fill="#000000" font-family="Helvetica" font-size="14" lengthAdjust="spacing" textLength="395.3496" x="506.1" y="630.7803">StorageBackend, SQLiteBackend, PostgresBackend, BlobStore</text></g><!--link cli to ev--><g class="link" data-entity-1="ent0001" data-entity-2="ent0002" data-link-type="dependency" data-source-line="24" id="lnk11"><path d="M626.56,104.43 C680.12,123 742.8359,144.7319 792.2659,161.8719" fill="none" id="cli-to-ev" style="stroke:#555555;stroke-width:1;"/><polygon fill="#555555" points="796.99,163.51,789.7972,156.7822,792.2659,161.8719,787.1762,164.3407,796.99,163.51" style="stroke:#555555;stroke-width:1;stroke-linejoin:miter;stroke-miterlimit:10;"/></g><!--link cli to rp--><g class="link" data-entity-1="ent0001" data-entity-2="ent0003" data-link-type="dependency" data-source-line="25" id="lnk12"><path d="M559.55,104.36 C581.93,135.1 620.11,182.23 662.77,212 C700.4,238.25 742.7973,256.3272 782.6773,269.9172" fill="none" id="cli-to-rp" style="stroke:#555555;stroke-width:1;"/><polygon fill="#555555" points="787.41,271.53,780.1813,264.8408,782.6773,269.9172,777.6008,272.4132,787.41,271.53" style="stroke:#555555;stroke-width:1;stroke-linejoin:miter;stroke-miterlimit:10;"/></g><!--link cli to mem--><g class="link" data-entity-1="ent0001" data-entity-2="ent0004" data-link-type="dependency" data-source-line="26" id="lnk13"><path d="M538.77,104.27 C538.77,148.83 538.77,226.18 538.77,266.51" fill="none" id="cli-to-mem" style="stroke:#555555;stroke-width:1;"/><polygon fill="#555555" points="538.77,271.51,542.77,262.51,538.77,266.51,534.77,262.51,538.77,271.51" style="stroke:#555555;stroke-width:1;stroke-linejoin:miter;stroke-miterlimit:10;"/></g><!--link cli to integ--><g class="link" data-entity-1="ent0001" data-entity-2="ent0006" data-link-type="dependency" data-source-line="27" id="lnk14"><path d="M431.05,104.43 C365.34,123 287.4116,145.0104 226.7516,162.1504" fill="none" id="cli-to-integ" style="stroke:#555555;stroke-width:1;"/><polygon fill="#555555" points="221.94,163.51,231.6885,164.9121,226.7516,162.1504,229.5132,157.2135,221.94,163.51" style="stroke:#555555;stroke-width:1;stroke-linejoin:miter;stroke-miterlimit:10;"/></g><!--link cli to snap--><g class="link" data-entity-1="ent0001" data-entity-2="ent0007" data-link-type="dependency" data-source-line="28" id="lnk15"><path d="M488.05,104.35 C416.43,151.04 300.5,243.14 358.77,320 C384.04,353.33 484.4116,376.1168 562.2616,389.4368" fill="none" id="cli-to-snap" style="stroke:#555555;stroke-width:1;"/><polygon fill="#555555" points="567.19,390.28,558.9935,384.8195,562.2616,389.4368,557.6443,392.7049,567.19,390.28" style="stroke:#555555;stroke-width:1;stroke-linejoin:miter;stroke-miterlimit:10;"/></g><!--link ev to rp--><g class="link" data-entity-1="ent0002" data-entity-2="ent0003" data-link-type="dependency" data-source-line="29" id="lnk16"><path d="M866.09,212.26 C867.09,229.94 868.1773,249.138 869.1773,266.798" fill="none" id="ev-to-rp" style="stroke:#555555;stroke-width:1;"/><polygon fill="#555555" points="869.46,271.79,872.9448,262.5783,869.1773,266.798,864.9576,263.0305,869.46,271.79" style="stroke:#555555;stroke-width:1;stroke-linejoin:miter;stroke-miterlimit:10;"/></g><!--link ev to mem--><g class="link" data-entity-1="ent0002" data-entity-2="ent0004" data-link-type="dependency" data-source-line="30" id="lnk17"><path d="M792.83,212.39 C738.73,229.98 669.6851,252.4342 615.5751,270.0242" fill="none" id="ev-to-mem" style="stroke:#555555;stroke-width:1;"/><polygon fill="#555555" points="610.82,271.57,620.6157,272.5917,615.5751,270.0242,618.1425,264.9836,610.82,271.57" style="stroke:#555555;stroke-width:1;stroke-linejoin:miter;stroke-miterlimit:10;"/></g><!--link ev to llm--><g class="link" data-entity-1="ent0002" data-entity-2="ent0005" data-link-type="dependency" data-source-line="31" id="lnk18"><path d="M946.86,212.32 C976.06,225.01 1005.87,244.02 1022.77,272 C1033.81,290.26 1032.99,301.27 1022.77,320 C1008.1,346.88 985.0261,364.0725 959.1561,377.3825" fill="none" id="ev-to-llm" style="stroke:#555555;stroke-width:1;"/><polygon fill="#555555" points="954.71,379.67,964.5429,379.1094,959.1561,377.3825,960.8829,371.9957,954.71,379.67" style="stroke:#555555;stroke-width:1;stroke-linejoin:miter;stroke-miterlimit:10;"/></g><!--link rp to llm--><g class="link" data-entity-1="ent0003" data-entity-2="ent0005" data-link-type="dependency" data-source-line="32" id="lnk19"><path d="M875.82,320.26 C879.65,337.94 883.8376,357.2442 887.6776,374.9042" fill="none" id="rp-to-llm" style="stroke:#555555;stroke-width:1;"/><polygon fill="#555555" points="888.74,379.79,890.7364,370.1456,887.6776,374.9042,882.9191,371.8454,888.74,379.79" style="stroke:#555555;stroke-width:1;stroke-linejoin:miter;stroke-miterlimit:10;"/></g><!--link rp to snap--><g class="link" data-entity-1="ent0003" data-entity-2="ent0007" data-link-type="dependency" data-source-line="33" id="lnk20"><path d="M823.1,320.39 C787.2,338.01 742.6783,359.8565 706.8083,377.4665" fill="none" id="rp-to-snap" style="stroke:#555555;stroke-width:1;"/><polygon fill="#555555" points="702.32,379.67,712.1617,379.2944,706.8083,377.4665,708.6361,372.1131,702.32,379.67" style="stroke:#555555;stroke-width:1;stroke-linejoin:miter;stroke-miterlimit:10;"/></g><!--link mem to ev2--><g class="link" data-entity-1="ent0004" data-entity-2="ent0008" data-link-type="dependency" data-source-line="34" id="lnk21"><path d="M539.32,320.31 C540.28,361.47 542.1534,441.5814 543.1134,482.7214" fill="none" id="mem-to-ev2" style="stroke:#555555;stroke-width:1;"/><polygon fill="#555555" points="543.23,487.72,547.019,478.6291,543.1134,482.7214,539.0211,478.8158,543.23,487.72" style="stroke:#555555;stroke-width:1;stroke-linejoin:miter;stroke-miterlimit:10;"/></g><!--link llm to tr--><g class="link" data-entity-1="ent0005" data-entity-2="ent0009" data-link-type="dependency" data-source-line="35" id="lnk22"><path d="M890.48,428.26 C887.98,445.94 885.2608,465.1794 882.7608,482.8394" fill="none" id="llm-to-tr" style="stroke:#555555;stroke-width:1;"/><polygon fill="#555555" points="882.06,487.79,887.282,479.4395,882.7608,482.8394,879.361,478.3182,882.06,487.79" style="stroke:#555555;stroke-width:1;stroke-linejoin:miter;stroke-miterlimit:10;"/></g><!--link integ to ev2--><g class="link" data-entity-1="ent0006" data-entity-2="ent0008" data-link-type="dependency" data-source-line="36" id="lnk23"><path d="M168.22,212.42 C243.04,271.9 435.8262,425.1784 510.5162,484.5584" fill="none" id="integ-to-ev2" style="stroke:#555555;stroke-width:1;"/><polygon fill="#555555" points="514.43,487.67,509.8744,478.9381,510.5162,484.5584,504.8958,485.2002,514.43,487.67" style="stroke:#555555;stroke-width:1;stroke-linejoin:miter;stroke-miterlimit:10;"/></g><!--link snap to ev2--><g class="link" data-entity-1="ent0007" data-entity-2="ent0008" data-link-type="dependency" data-source-line="37" id="lnk24"><path d="M630.41,428.26 C611.91,445.94 590.1867,466.6775 571.6867,484.3375" fill="none" id="snap-to-ev2" style="stroke:#555555;stroke-width:1;"/><polygon fill="#555555" points="568.07,487.79,577.342,484.4689,571.6867,484.3375,571.8181,478.6822,568.07,487.79" style="stroke:#555555;stroke-width:1;stroke-linejoin:miter;stroke-miterlimit:10;"/></g><!--link tr to st--><g class="link" data-entity-1="ent0009" data-entity-2="ent0010" data-link-type="dependency" data-source-line="38" id="lnk25"><path d="M840.37,536.26 C811.29,553.87 775.7969,575.3801 746.6669,593.0201" fill="none" id="tr-to-st" style="stroke:#555555;stroke-width:1;"/><polygon fill="#555555" points="742.39,595.61,752.1604,594.3696,746.6669,593.0201,748.0165,587.5265,742.39,595.61" style="stroke:#555555;stroke-width:1;stroke-linejoin:miter;stroke-miterlimit:10;"/></g><!--link ev2 to st--><g class="link" data-entity-1="ent0008" data-entity-2="ent0010" data-link-type="dependency" data-source-line="39" id="lnk26"><path d="M578.88,536.26 C605.47,553.87 637.6611,575.2095 664.3011,592.8495" fill="none" id="ev2-to-st" style="stroke:#555555;stroke-width:1;"/><polygon fill="#555555" points="668.47,595.61,663.1744,587.306,664.3011,592.8495,658.7576,593.9762,668.47,595.61" style="stroke:#555555;stroke-width:1;stroke-linejoin:miter;stroke-miterlimit:10;"/></g><?plantuml-src NPJDRjim383lVWgYEwp5t0NDsXrs6D0EAtOOXWxTCK10ouojHHOzYKwM3dltKNASkSt1eYZouv-Kr_20PeiDWSC31UkR3q1esd4BDVNawmZitK4_82tfGX4gShm7As-BkBM-nu0TL4fg0W--_iIE0-nRApGxhsc3WvDxzl8DEu8lv7Oark3C9hPOyrxJW0swEFSEP0HzumZ-501tBsAzkh--l_fycquur1IEsflyA_xEEBSXyFxvSI5MbCjTHLvBx-STYN0-Da6Fh1RUi_K2cgFVOwWlYk9_NcV6MNW3sFTnvHK64j3G8XwyMKIFVMnP5Xrr70uBsg5RHCJOM5dix5EvyibklUUmfL1gjRs6NuV1UmfdW14KFe-L073-0-CsmhL6VN-nyf9swZjKmHeLVWvrGrcHA2L4GOcPpI49dHtLH7KEGRjvX365CGRSA3wYhol-hGwZiCRUbg1vs1g5WmBpV6DcXNxE6gi-ijufot3NMpTMAi7IBYTYE8ogo2vhjbK95RD4RMMVkKgQWvthLhx2IAcwGQtHInkujsQj3IClgcbqoRvgFFVLGL8JK2pxU4nj2P67O2XUJDH0ZTNe1-KxlHSbD0QTVcjE7Muwj2wpCsnEdoP-GYkoGz4tfWrxKdA7tcueQeQrtMmo9Fay7xAche1MKqZzYqELEY6Kfc5Qwd21hg4gO2fVcrV2hq4ZK3pESpcdvUiufNDrGfIQUvFp25IZqTMmr-vhgbfXown5iv1ROusz76-ZX6UrQcnjyye_Za9wdVfaIdZy_bN_0qxR1uxIw7HFYZl7LVAXiNmfYlI6BYy_fhiuYNgL9Z5DVvB7Za-xt3hQJGv7ATaVnJpy_gMOtTJg67DPw5cMjS0Su7IGB4yR2QEtA7qvYVy0?></g></svg>